<svg width="32" height="32" viewBox="0 0 32 32" fill="none" xmlns="http://www.w3.org/2000/svg">
<circle cx="16" cy="16" r="15.5" stroke="white"/>
<path d="M16.0007 13.9987C15.4702 13.9987 14.9615 14.2094 14.5864 14.5845C14.2114 14.9596 14.0007 15.4683 14.0007 15.9987C14.0007 16.5291 14.2114 17.0378 14.5864 17.4129C14.9615 17.788 15.4702 17.9987 16.0007 17.9987C16.5311 17.9987 17.0398 17.788 17.4149 17.4129C17.7899 17.0378 18.0007 16.5291 18.0007 15.9987C18.0007 15.4683 17.7899 14.9596 17.4149 14.5845C17.0398 14.2094 16.5311 13.9987 16.0007 13.9987ZM16.0007 12.6654C16.8847 12.6654 17.7326 13.0166 18.3577 13.6417C18.9828 14.2668 19.334 15.1146 19.334 15.9987C19.334 16.8828 18.9828 17.7306 18.3577 18.3557C17.7326 18.9808 16.8847 19.332 16.0007 19.332C15.1166 19.332 14.2687 18.9808 13.6436 18.3557C13.0185 17.7306 12.6673 16.8828 12.6673 15.9987C12.6673 15.1146 13.0185 14.2668 13.6436 13.6417C14.2687 13.0166 15.1166 12.6654 16.0007 12.6654ZM20.334 12.4987C20.334 12.7197 20.2462 12.9317 20.0899 13.088C19.9336 13.2442 19.7217 13.332 19.5007 13.332C19.2796 13.332 19.0677 13.2442 18.9114 13.088C18.7551 12.9317 18.6673 12.7197 18.6673 12.4987C18.6673 12.2777 18.7551 12.0657 18.9114 11.9094C19.0677 11.7532 19.2796 11.6654 19.5007 11.6654C19.7217 11.6654 19.9336 11.7532 20.0899 11.9094C20.2462 12.0657 20.334 12.2777 20.334 12.4987ZM16.0007 10.6654C14.3513 10.6654 14.082 10.67 13.3147 10.704C12.792 10.7287 12.4413 10.7987 12.116 10.9254C11.8437 11.0253 11.5976 11.1855 11.396 11.394C11.1873 11.5956 11.0269 11.8418 10.9267 12.114C10.8 12.4407 10.73 12.7907 10.706 13.3127C10.6713 14.0487 10.6667 14.306 10.6667 15.9987C10.6667 17.6487 10.6713 17.9174 10.7053 18.6847C10.73 19.2067 10.8 19.558 10.926 19.8827C11.0393 20.1727 11.1727 20.3814 11.394 20.6027C11.6187 20.8267 11.8273 20.9607 12.114 21.0714C12.4433 21.1987 12.794 21.2694 13.314 21.2934C14.05 21.328 14.3073 21.332 16 21.332C17.65 21.332 17.9187 21.3274 18.686 21.2934C19.2073 21.2687 19.558 21.1987 19.884 21.0727C20.156 20.9722 20.402 20.8121 20.604 20.604C20.8287 20.38 20.9627 20.1714 21.0733 19.884C21.2 19.556 21.2706 19.2054 21.2947 18.684C21.3293 17.9487 21.3333 17.6907 21.3333 15.9987C21.3333 14.3494 21.3287 14.08 21.2947 13.3127C21.27 12.7914 21.1993 12.4394 21.0733 12.114C20.9728 11.842 20.8127 11.596 20.6047 11.394C20.4031 11.1853 20.157 11.0248 19.8847 10.9247C19.558 10.798 19.2073 10.728 18.686 10.704C17.9507 10.6694 17.694 10.6654 16.0007 10.6654ZM16.0007 9.33203C17.812 9.33203 18.038 9.3387 18.7493 9.37203C19.4587 9.40536 19.9427 9.5167 20.3673 9.68203C20.8073 9.85136 21.178 10.0807 21.5487 10.4507C21.8876 10.784 22.15 11.1871 22.3173 11.632C22.482 12.0567 22.594 12.5407 22.6273 13.2507C22.6587 13.9614 22.6673 14.1874 22.6673 15.9987C22.6673 17.81 22.6607 18.036 22.6273 18.7467C22.594 19.4567 22.482 19.94 22.3173 20.3654C22.1504 20.8105 21.888 21.2138 21.5487 21.5467C21.2153 21.8856 20.8122 22.1479 20.3673 22.3154C19.9427 22.48 19.4587 22.592 18.7493 22.6254C18.038 22.6567 17.812 22.6654 16.0007 22.6654C14.1893 22.6654 13.9633 22.6587 13.252 22.6254C12.5427 22.592 12.0593 22.48 11.634 22.3154C11.1889 22.1483 10.7857 21.886 10.4527 21.5467C10.1136 21.2135 9.85129 20.8103 9.68398 20.3654C9.51865 19.9407 9.40732 19.4567 9.37398 18.7467C9.34198 18.036 9.33398 17.81 9.33398 15.9987C9.33398 14.1874 9.34065 13.9614 9.37398 13.2507C9.40732 12.54 9.51865 12.0574 9.68398 11.632C9.85081 11.1868 10.1132 10.7836 10.4527 10.4507C10.7858 10.1115 11.1889 9.84918 11.634 9.68203C12.0587 9.5167 12.542 9.40536 13.252 9.37203C13.9633 9.3407 14.1893 9.33203 16.0007 9.33203Z" fill="white"/>
</svg>
