<svg width="20" height="26" viewBox="0 0 20 26" fill="none" xmlns="http://www.w3.org/2000/svg">
<path d="M10.0619 25.037L10.0956 25.0676L10.1292 25.037C13.2742 22.1785 15.6347 19.5322 17.2092 17.0986C18.7836 14.6652 19.5741 12.4413 19.5741 10.4286C19.5741 7.9147 18.5755 5.50379 16.7979 3.72621C15.0203 1.94863 12.6094 0.95 10.0956 0.95C7.58169 0.95 5.17078 1.94863 3.3932 3.72621C1.61562 5.50379 0.616992 7.9147 0.616992 10.4286C0.616992 12.4413 1.40756 14.6652 2.98194 17.0986C4.55646 19.5322 6.91694 22.1785 10.0619 25.037ZM15.515 5.0091C16.9524 6.44644 17.7598 8.39588 17.7598 10.4286C17.7598 11.9979 17.1318 13.8109 15.8537 15.8509C14.5815 17.8814 12.6675 20.1334 10.0956 22.5892C7.52363 20.1334 5.6096 17.8814 4.33743 15.8509C3.05933 13.8109 2.43128 11.9979 2.43128 10.4286C2.43128 8.39588 3.23876 6.44644 4.6761 5.0091C6.11343 3.57177 8.06287 2.76429 10.0956 2.76429C12.1283 2.76429 14.0777 3.57177 15.515 5.0091Z" fill="white" stroke="white" stroke-width="0.1"/>
<path d="M10.167 13.85C11.0555 13.85 11.9076 13.4971 12.5358 12.8688C13.164 12.2406 13.517 11.3885 13.517 10.5C13.517 9.61153 13.164 8.75944 12.5358 8.13119C11.9076 7.50295 11.0555 7.15 10.167 7.15C9.27852 7.15 8.42643 7.50295 7.79818 8.13119C7.16994 8.75944 6.81699 9.61153 6.81699 10.5C6.81699 11.3885 7.16994 12.2406 7.79818 12.8688C8.42643 13.4971 9.27852 13.85 10.167 13.85ZM10.167 15.95C8.72156 15.95 7.33533 15.3758 6.31326 14.3537C5.29119 13.3317 4.71699 11.9454 4.71699 10.5C4.71699 9.05457 5.29119 7.66834 6.31326 6.64627C7.33533 5.62419 8.72156 5.05 10.167 5.05C11.6124 5.05 12.9987 5.62419 14.0207 6.64627C15.0428 7.66834 15.617 9.05457 15.617 10.5C15.617 11.9454 15.0428 13.3317 14.0207 14.3537C12.9987 15.3758 11.6124 15.95 10.167 15.95Z" fill="white" stroke="white" stroke-width="0.1"/>
</svg>
