<svg width="28" height="27" viewBox="0 0 28 27" fill="none" xmlns="http://www.w3.org/2000/svg">
<g clip-path="url(#clip0_916_7102)">
<path d="M26.5644 19.1346V22.7476C26.5658 23.083 26.497 23.415 26.3623 23.7223C26.2277 24.0296 26.0302 24.3055 25.7826 24.5322C25.5349 24.759 25.2426 24.9316 24.9242 25.0391C24.6059 25.1465 24.2685 25.1864 23.9338 25.1562C20.2205 24.7536 16.6537 23.4872 13.5199 21.459C10.6042 19.6099 8.1323 17.1429 6.27959 14.233C4.24022 11.0912 2.97108 7.51411 2.57498 3.79156C2.54482 3.45852 2.58448 3.12287 2.69143 2.80597C2.79837 2.48907 2.97026 2.19786 3.19616 1.95089C3.42205 1.70393 3.69699 1.50661 4.00348 1.3715C4.30996 1.23639 4.64128 1.16645 4.97634 1.16613H8.59648C9.18211 1.16038 9.74985 1.36735 10.1939 1.74846C10.6379 2.12957 10.9279 2.65883 11.0099 3.23757C11.1627 4.3938 11.4461 5.52906 11.8546 6.62171C12.017 7.05277 12.0521 7.52124 11.9559 7.97161C11.8596 8.42199 11.636 8.83539 11.3116 9.16283L9.77906 10.6923C11.4969 13.7074 13.9983 16.2038 17.0193 17.9183L18.5519 16.3888C18.88 16.065 19.2942 15.8418 19.7454 15.7458C20.1967 15.6497 20.6661 15.6848 21.098 15.8468C22.1928 16.2545 23.3304 16.5374 24.4889 16.6899C25.0751 16.7724 25.6104 17.0671 25.9931 17.5178C26.3758 17.9686 26.5791 18.544 26.5644 19.1346Z" stroke="white" stroke-width="2" stroke-linecap="round" stroke-linejoin="round"/>
</g>
<defs>
<clipPath id="clip0_916_7102">
<rect width="27" height="27" fill="white" transform="translate(0.666748)"/>
</clipPath>
</defs>
</svg>
