<svg width="32" height="32" viewBox="0 0 32 32" fill="none" xmlns="http://www.w3.org/2000/svg">
<circle cx="16" cy="16" r="15.5" stroke="white"/>
<path d="M17.861 15.1846L15.4157 13.7766C15.2721 13.694 15.1093 13.6505 14.9436 13.6507C14.778 13.6508 14.6153 13.6945 14.4718 13.7773C14.3284 13.8602 14.2092 13.9793 14.1263 14.1228C14.0435 14.2662 13.9998 14.429 13.9997 14.5946V17.4093C13.9977 17.7466 14.1777 18.0586 14.4703 18.2253C14.6138 18.3091 14.777 18.3534 14.9432 18.3536C15.1093 18.3539 15.2726 18.3101 15.4163 18.2266L17.861 16.8186C18.0046 16.7361 18.1239 16.6171 18.2069 16.4737C18.2898 16.3303 18.3335 16.1676 18.3335 16.002C18.3335 15.8363 18.2898 15.6736 18.2069 15.5302C18.1239 15.3868 18.0046 15.2679 17.861 15.1853V15.1846ZM17.5277 16.2393L15.0837 17.648C15.0413 17.6728 14.9931 17.6859 14.944 17.6859C14.8949 17.6859 14.8467 17.6728 14.8043 17.648C14.762 17.624 14.7268 17.5891 14.7025 17.5468C14.6782 17.5046 14.6658 17.4567 14.6663 17.408V14.5946C14.6659 14.5461 14.6784 14.4982 14.7027 14.4561C14.727 14.4141 14.7621 14.3792 14.8043 14.3553C14.8463 14.3298 14.8945 14.3162 14.9437 14.3162C14.9928 14.3162 15.041 14.3298 15.083 14.3553L17.5277 15.764C17.5698 15.7878 17.6049 15.8224 17.6293 15.8642C17.6537 15.906 17.6666 15.9535 17.6666 16.002C17.6666 16.0504 17.6537 16.0979 17.6293 16.1398C17.6049 16.1816 17.5698 16.2155 17.5277 16.2393ZM20.6663 10.668H11.333C10.8027 10.6685 10.2943 10.8794 9.91938 11.2543C9.54442 11.6293 9.33354 12.1377 9.33301 12.668V19.3346C9.33354 19.8649 9.54442 20.3733 9.91938 20.7483C10.2943 21.1232 10.8027 21.3341 11.333 21.3346H20.6663C21.1966 21.3341 21.705 21.1232 22.08 20.7483C22.4549 20.3733 22.6658 19.8649 22.6663 19.3346V12.668C22.6658 12.1377 22.4549 11.6293 22.08 11.2543C21.705 10.8794 21.1966 10.6685 20.6663 10.668ZM21.9997 19.3346C21.9991 19.6881 21.8585 20.0269 21.6086 20.2769C21.3586 20.5268 21.0198 20.6674 20.6663 20.668H11.333C10.9795 20.6674 10.6407 20.5268 10.3908 20.2769C10.1408 20.0269 10.0002 19.6881 9.99967 19.3346V12.668C10.0002 12.3145 10.1408 11.9757 10.3908 11.7257C10.6407 11.4758 10.9795 11.3352 11.333 11.3346H20.6663C21.0198 11.3352 21.3586 11.4758 21.6086 11.7257C21.8585 11.9757 21.9991 12.3145 21.9997 12.668V19.3346Z" fill="white"/>
</svg>
