<svg width="20" height="15" viewBox="0 0 20 15" fill="none" xmlns="http://www.w3.org/2000/svg">
<path d="M0 4H20V11H0V4Z" fill="white"/>
<path d="M16.875 0.125H3.125C1.05406 0.125 0 1.66406 0 3.5625V4.8125H20V3.5625C20 1.66406 18.9459 0.125 16.875 0.125Z" fill="#EC1C24"/>
<path d="M0 11.4375C0 13.3359 1.05406 14.875 3.125 14.875H16.875C18.9459 14.875 20 13.3359 20 11.4375V10.1875H0V11.4375Z" fill="#292929"/>
<path fill-rule="evenodd" clip-rule="evenodd" d="M11.4506 5.8778C11.4813 6.1578 11.4806 6.43843 11.4941 6.71968C11.5197 7.25718 11.5397 7.79718 11.5616 8.33624V8.43374C11.3969 8.27874 11.2459 8.13811 11.0966 7.99593C11.0925 7.98186 11.0994 7.97217 11.1094 7.96249C11.1366 7.93186 11.1269 7.89561 11.1247 7.86249C11.1094 7.62968 11.105 7.39593 11.0928 7.16218C11.0766 6.82468 11.0666 6.4878 11.0466 6.1503C11.0413 6.04686 11.0747 5.97249 11.1638 5.92061C11.2197 5.88749 11.2572 5.90093 11.2591 5.96593C11.2641 6.09249 11.2684 6.21874 11.2753 6.3453C11.295 6.70936 11.3063 7.07405 11.3238 7.4378C11.3319 7.60686 11.3481 7.7753 11.3428 7.94374C11.3409 7.99436 11.3441 8.04374 11.3519 8.07374C11.3259 7.96811 11.3469 7.84155 11.3369 7.7153C11.3184 7.50061 11.3144 7.28499 11.3053 7.06936C11.2919 6.70155 11.2706 6.3353 11.26 5.96749C11.2575 5.84999 11.2822 5.83436 11.3972 5.87561C11.4147 5.87874 11.4331 5.86749 11.4506 5.8778ZM9.00376 8.05843C8.87407 8.17905 8.74376 8.29936 8.60501 8.42686C8.60501 8.31124 8.60126 8.21155 8.60564 8.10999C8.63314 7.43593 8.66282 6.76124 8.69126 6.08593C8.69439 6.01624 8.7022 5.94718 8.70845 5.87749C8.72689 5.86999 8.7397 5.89749 8.75907 5.88343C8.77704 5.86982 8.79789 5.86052 8.82001 5.85624C8.87126 5.84749 8.90032 5.87186 8.90032 5.92405C8.90032 6.08436 8.8897 6.2428 8.88189 6.40093C8.87657 6.52468 8.86751 6.64843 8.86439 6.77218C8.85657 7.05093 8.84064 7.32905 8.83032 7.60624C8.82376 7.76124 8.82064 7.91686 8.81157 8.07061C8.82345 7.92593 8.82345 7.77842 8.82939 7.6328C8.84939 7.16405 8.87001 6.6953 8.89095 6.22655C8.89407 6.1428 8.90314 6.05811 8.90001 5.97343C8.89876 5.94499 8.90314 5.91655 8.93314 5.90499C8.95939 5.89343 8.9797 5.91186 9.00157 5.92405C9.0847 5.97343 9.11626 6.04436 9.1122 6.14186C9.09384 6.5389 9.07654 6.93598 9.06032 7.33311C9.05282 7.51155 9.05407 7.69124 9.03314 7.86999C9.0272 7.93218 9.01064 7.99468 9.00376 8.05843Z" fill="#BF9200"/>
<path fill-rule="evenodd" clip-rule="evenodd" d="M9.00408 8.05805C8.9828 8.00008 8.98192 7.93659 9.00158 7.87805C9.0122 7.87617 9.02908 7.90461 9.03345 7.87336C9.03595 7.84523 9.04408 7.81898 9.04408 7.79211C9.04408 7.61023 9.05689 7.42867 9.06564 7.24836C9.07814 6.99055 9.08408 6.73211 9.1022 6.47523C9.10876 6.38867 9.10783 6.30117 9.1097 6.21492C9.11095 6.16836 9.10876 6.11086 9.16501 6.09711C9.22095 6.08367 9.25408 6.12961 9.2847 6.17086C9.30314 6.19586 9.30439 6.22617 9.30251 6.2568C9.28595 6.50211 9.28251 6.74711 9.27033 6.99273C9.2597 7.23086 9.25126 7.46867 9.24001 7.70773C9.25626 7.35586 9.2722 7.00367 9.28564 6.65117C9.28908 6.54024 9.29751 6.4293 9.30064 6.3168C9.30314 6.22773 9.32689 6.21055 9.4172 6.21898C9.45939 6.22367 9.50001 6.2318 9.54314 6.23461C9.56283 6.24211 9.58439 6.2493 9.59033 6.27305C9.58158 6.30492 9.55314 6.30148 9.53033 6.30211C9.48064 6.30555 9.46376 6.33461 9.47751 6.37711C9.49345 6.42242 9.48751 6.46898 9.4897 6.5143C9.48751 6.55555 9.48658 6.5968 9.48314 6.63805C9.47254 6.72849 9.46722 6.81948 9.4672 6.91055C9.46533 7.07555 9.4497 7.24148 9.44533 7.40617C9.42968 7.46697 9.42596 7.53022 9.43439 7.59242C9.43845 7.61242 9.44439 7.63242 9.44939 7.65242C9.45408 7.68211 9.44189 7.70898 9.42564 7.73211C9.41771 7.74081 9.40798 7.74769 9.39714 7.75227C9.3863 7.75686 9.37459 7.75904 9.36283 7.75867C9.33251 7.75399 9.31939 7.77867 9.3022 7.79367L9.00408 8.05805ZM11.1116 7.9843C11.1063 7.98867 11.1013 7.99242 11.0966 7.99711C11.0322 7.93711 10.9666 7.87773 10.9031 7.81648C10.8985 7.80305 10.9044 7.79242 10.9119 7.7818C10.9181 7.77023 10.9166 7.75805 10.9166 7.74523C10.9119 7.37711 10.8919 7.01117 10.8735 6.6443C10.8669 6.51086 10.8719 6.37617 10.8572 6.24305C10.8535 6.2201 10.8588 6.19662 10.8719 6.17742C10.9019 6.13492 10.9353 6.08461 10.995 6.09899C11.0506 6.11274 11.0491 6.17055 11.0497 6.2168C11.06 6.62367 11.085 7.03055 11.1028 7.43742C11.1091 7.58305 11.1028 7.73055 11.1244 7.87586C11.1291 7.91055 11.1344 7.94992 11.1116 7.9843ZM10.9141 8.20805C10.9203 8.2668 10.9444 8.28086 11.006 8.26336C11.1013 8.23586 11.235 8.30117 11.2156 8.42242C11.2113 8.45555 11.2197 8.47742 11.2531 8.49305C11.3022 8.51586 11.3197 8.57961 11.3797 8.59055C11.3885 8.59274 11.3931 8.61055 11.3853 8.61648C11.3291 8.6493 11.3456 8.72836 11.2925 8.76367C11.2853 8.7693 11.275 8.77867 11.2741 8.7868C11.2703 8.89492 11.1903 8.9143 11.1072 8.93211C10.7128 9.01805 10.3131 9.02617 9.9122 9.01805C9.61658 9.01305 9.32158 8.9968 9.0322 8.92586C8.95595 8.90836 8.90751 8.87961 8.88126 8.79461C8.86041 8.73554 8.82942 8.68055 8.7897 8.63211C8.76658 8.60367 8.77283 8.60086 8.79876 8.57961C8.86408 8.52649 8.95376 8.4943 8.94845 8.37774C8.94439 8.2943 9.0622 8.23211 9.15439 8.26274C9.21439 8.28242 9.2397 8.26774 9.24626 8.20805C9.26626 8.20399 9.27408 8.21805 9.28126 8.23211C9.29189 8.25461 9.28939 8.27742 9.28658 8.30117C9.28282 8.31165 9.27553 8.32049 9.26595 8.32617C9.23689 8.33992 9.20814 8.3318 9.18033 8.32367C9.16033 8.31711 9.13564 8.30773 9.11783 8.32898C9.09564 8.3568 9.12939 8.36492 9.13876 8.38242C9.14374 8.3908 9.14593 8.40054 9.14501 8.41024C9.14033 8.42649 9.12689 8.43492 9.11376 8.44274C9.06845 8.45305 9.03095 8.47336 9.01095 8.51961C9.00189 8.54211 8.97814 8.5543 8.95626 8.56898C8.89501 8.6118 8.88908 8.64555 8.9347 8.70305C8.94314 8.71461 8.95689 8.72586 8.9597 8.73961C8.97814 8.83149 9.04939 8.84711 9.12533 8.86211C9.38126 8.91148 9.64126 8.93336 9.90251 8.93492C10.1366 8.93711 10.3697 8.94149 10.6031 8.91992C10.7685 8.90461 10.9341 8.88805 11.0953 8.84711C11.1428 8.83523 11.1781 8.8168 11.1897 8.76461C11.195 8.74055 11.2125 8.72055 11.2278 8.70086C11.2688 8.65024 11.2663 8.6118 11.2153 8.57524C11.1805 8.55524 11.1516 8.52633 11.1316 8.49148C11.1113 8.45117 11.0725 8.4568 11.0338 8.46211C10.9285 8.47992 10.8269 8.51023 10.7222 8.53055C10.7085 8.52867 10.6994 8.52117 10.6916 8.50898C10.6843 8.49786 10.6801 8.48507 10.6792 8.47183C10.6783 8.45858 10.6809 8.44534 10.6866 8.43336C10.6921 8.42241 10.7013 8.4137 10.7125 8.40867C10.8256 8.45492 10.9222 8.38117 11.0281 8.36836C11.0428 8.36617 11.051 8.35492 11.0494 8.34148C11.0441 8.32117 11.0278 8.31555 11.0078 8.31836C10.9719 8.32242 10.9366 8.34398 10.8985 8.32867C10.8884 8.32301 10.8805 8.31424 10.876 8.30367C10.8701 8.28027 10.8715 8.25563 10.88 8.23305C10.8866 8.21867 10.8941 8.2043 10.9153 8.20805" fill="#BF9200"/>
<path fill-rule="evenodd" clip-rule="evenodd" d="M10.9181 7.80399L10.9031 7.81556C10.8575 7.79618 10.8353 7.74243 10.784 7.73024C10.779 7.73429 10.7729 7.73696 10.7665 7.738C10.7601 7.73904 10.7536 7.73841 10.7475 7.73618C10.7184 7.71712 10.7081 7.69087 10.7096 7.65774C10.7125 7.63712 10.7212 7.61806 10.7243 7.59649C10.734 7.53631 10.7309 7.47478 10.7153 7.41587C10.709 7.23587 10.6921 7.05743 10.6915 6.87681C10.6915 6.81712 10.7003 6.75368 10.6646 6.69899C10.6522 6.69032 10.6424 6.6783 10.6365 6.66431C10.6496 6.57462 10.6678 6.48587 10.6787 6.39524C10.6875 6.32056 10.69 6.31681 10.6165 6.30337C10.5975 6.29993 10.5768 6.29993 10.5693 6.27556C10.575 6.25056 10.5978 6.24431 10.6181 6.23587C10.6646 6.23181 10.7112 6.22243 10.7578 6.21806C10.8284 6.21118 10.8546 6.23149 10.8587 6.30274C10.8656 6.44493 10.8703 6.58618 10.8762 6.72774C10.8946 7.07868 10.9028 7.43181 10.924 7.78337C10.924 7.79087 10.9203 7.79774 10.9181 7.80399Z" fill="#BF9200"/>
<path fill-rule="evenodd" clip-rule="evenodd" d="M10.7539 7.72813C10.7639 7.72813 10.7733 7.72907 10.783 7.72907L10.8418 7.96594C10.8502 7.98 10.8493 7.99219 10.8336 8.00125C10.8221 8.00719 10.8064 7.98532 10.7958 8.00719C10.7452 8.10563 10.7646 8.19719 10.8552 8.26688C10.8674 8.27532 10.8802 8.28219 10.8858 8.29813C10.8914 8.30316 10.8972 8.30785 10.9033 8.31219C10.9027 8.34688 10.8736 8.34938 10.8527 8.355C10.798 8.36625 10.7452 8.38375 10.6889 8.38C10.6692 8.37998 10.6497 8.38413 10.6318 8.39219C10.5199 8.41407 10.4068 8.41282 10.2943 8.40875C10.2746 8.4075 10.2514 8.40563 10.2452 8.43188C10.2399 8.45688 10.2602 8.46501 10.2799 8.47063C10.3299 8.48751 10.3821 8.48125 10.4327 8.48407C10.4608 8.48563 10.4921 8.47594 10.5139 8.50438C10.5174 8.54344 10.4864 8.54532 10.4605 8.54969C10.4286 8.55439 10.3963 8.55502 10.3643 8.55157C10.2999 8.54782 10.2411 8.55969 10.1933 8.60782C10.1872 8.61524 10.1792 8.62094 10.1702 8.62438C10.1196 8.64157 10.0771 8.58469 10.0124 8.62282C9.97394 8.64626 9.91363 8.57563 9.88425 8.52282C9.88133 8.51212 9.8809 8.50089 9.883 8.49001C9.88769 8.46563 9.928 8.45626 9.91269 8.42688C9.89613 8.39657 9.863 8.41157 9.838 8.40875C9.78269 8.40313 9.72363 8.43375 9.67394 8.39063C9.67113 8.34094 9.72175 8.34751 9.74457 8.32313C9.75837 8.31144 9.77558 8.30454 9.79363 8.30344C9.80488 8.30344 9.81457 8.30751 9.82363 8.31438C9.83207 8.32251 9.84113 8.33344 9.85394 8.33219C9.93144 8.32438 9.99488 8.35125 10.053 8.39813C10.0674 8.40969 10.0846 8.41469 10.1002 8.40126C10.1624 8.35344 10.2314 8.325 10.3136 8.33094C10.3221 8.33094 10.3289 8.32 10.3364 8.31375C10.3449 8.30717 10.3549 8.30297 10.3655 8.30157C10.4202 8.32313 10.4589 8.32125 10.4871 8.25532C10.5118 8.19625 10.5446 8.20157 10.6158 8.26532C10.6658 8.19594 10.6655 8.18126 10.6052 8.09282C10.5708 8.12126 10.5711 8.18813 10.5136 8.1875C10.4602 8.1875 10.4486 8.13219 10.4174 8.1025C10.3883 8.13563 10.4111 8.20282 10.3458 8.21157C10.3152 8.19157 10.3127 8.16188 10.318 8.13032C10.3414 8.06313 10.3377 7.99469 10.3308 7.92657C10.3331 7.91538 10.3378 7.90482 10.3446 7.89563C10.3774 7.85688 10.3696 7.80688 10.3814 7.76219C10.3921 7.72375 10.3908 7.66969 10.4449 7.665C10.493 7.66188 10.5143 7.70813 10.5377 7.7425C10.5441 7.75144 10.5481 7.76188 10.5493 7.77282C10.5458 7.7425 10.5593 7.70407 10.5805 7.66969C10.6083 7.62532 10.6602 7.62938 10.6983 7.67657C10.7139 7.69626 10.7208 7.72688 10.7539 7.72813Z" fill="#BF9200"/>
<path fill-rule="evenodd" clip-rule="evenodd" d="M9.78082 8.35656C9.75019 8.38406 9.70738 8.36 9.67551 8.38375C9.63207 8.43562 9.58113 8.38906 9.53426 8.39375C9.51301 8.38968 9.49426 8.37875 9.47269 8.38031C9.41582 8.38406 9.36176 8.36656 9.30707 8.35531C9.28551 8.34968 9.25613 8.3475 9.25488 8.3125C9.26105 8.30824 9.26689 8.30354 9.27238 8.29843C9.2777 8.2825 9.29082 8.27593 9.30301 8.26718C9.3927 8.1975 9.41363 8.10593 9.36332 8.00843C9.35176 7.98718 9.33676 8.0075 9.32457 8.00187C9.30832 7.99281 9.30832 7.98062 9.31644 7.96656C9.32332 7.89531 9.36238 7.83156 9.36238 7.75937C9.36614 7.7511 9.37196 7.74393 9.3793 7.73856C9.38664 7.7332 9.39523 7.72982 9.40426 7.72875C9.42676 7.72875 9.43988 7.71468 9.44988 7.69562C9.46863 7.66156 9.4952 7.63437 9.53801 7.63968C9.57988 7.645 9.58645 7.68406 9.59926 7.71656C9.6027 7.72468 9.6027 7.73562 9.61082 7.7425C9.61613 7.74375 9.61895 7.74093 9.6227 7.73625C9.64988 7.70625 9.66926 7.655 9.71894 7.66656C9.77519 7.67937 9.76957 7.73812 9.77957 7.7825C9.7877 7.81781 9.78582 7.85687 9.81957 7.88187C9.82764 7.88931 9.8333 7.899 9.83582 7.90968C9.82207 7.98687 9.81207 8.0625 9.84832 8.1375C9.85051 8.16625 9.84363 8.19062 9.81957 8.20812C9.74488 8.21093 9.77301 8.13468 9.74082 8.10375C9.65145 8.22 9.63738 8.22 9.55707 8.09718C9.49645 8.16406 9.49457 8.17968 9.53645 8.26406C9.55926 8.265 9.56645 8.24093 9.58176 8.23062C9.61363 8.20843 9.64863 8.20687 9.66457 8.24093C9.68738 8.29781 9.73457 8.32531 9.78082 8.35656ZM9.86801 5.58687C9.88176 5.49812 9.90582 5.41125 9.90051 5.32093C9.89962 5.29103 9.8914 5.2618 9.87658 5.23581C9.86176 5.20982 9.84079 5.18787 9.81551 5.17187C9.8003 5.16386 9.78332 5.15978 9.76613 5.16C9.73988 5.15718 9.70613 5.21656 9.68926 5.15718C9.68221 5.13435 9.68178 5.10998 9.68803 5.08691C9.69428 5.06384 9.70695 5.04302 9.72457 5.02687C9.73363 5.01843 9.74707 5.01062 9.75738 5.01125C9.90613 5.02156 10.0561 4.96343 10.2046 5.02812C10.2824 5.06312 10.3302 5.11343 10.3355 5.2C10.3421 5.215 10.3443 5.22906 10.3277 5.23843C10.3039 5.23843 10.2911 5.22156 10.2836 5.20375C10.2574 5.13843 10.2024 5.13343 10.1552 5.16125C10.0589 5.22 9.9852 5.18156 9.91457 5.12C9.88542 5.09629 9.85201 5.07837 9.81613 5.06718C9.88113 5.08281 9.93457 5.12812 9.98238 5.17687C10.0168 5.21062 10.0283 5.24781 9.98676 5.29312C9.93738 5.34593 9.96645 5.42093 9.94613 5.48375C9.93051 5.53031 9.94238 5.59062 9.87895 5.61281C9.86676 5.60781 9.86207 5.59968 9.86801 5.58687ZM10.4361 5.87781C10.4508 5.91406 10.4827 5.9075 10.5118 5.90593C10.6471 5.90093 10.7658 5.84718 10.8827 5.78625C10.8958 5.77812 10.9027 5.78468 10.9077 5.79625C10.9064 5.8375 10.8733 5.855 10.8439 5.8725C10.7944 5.9007 10.7413 5.92214 10.6861 5.93625C10.6202 5.95531 10.5564 5.98281 10.4936 6.00125C10.4077 6.0275 10.3086 6.07906 10.2111 6.01625C10.1852 6 10.1596 5.99593 10.1283 6.015C10.0568 6.06062 10.0143 6.03812 9.99457 5.95C9.99603 5.94489 9.99854 5.94015 10.0019 5.93606C10.0053 5.93197 10.0095 5.92863 10.0143 5.92625C10.1064 5.92437 10.1089 5.92281 10.1077 5.82468C10.1077 5.79906 10.1033 5.77468 10.1061 5.75C10.1155 5.7025 10.118 5.65437 10.1174 5.60656C10.1171 5.57937 10.1121 5.55187 10.1377 5.53281C10.1874 5.53093 10.1821 5.56937 10.1843 5.59968C10.1896 5.68375 10.1821 5.7675 10.2002 5.85125C10.2071 5.88531 10.2183 5.91218 10.2636 5.93031C10.2264 5.83047 10.2016 5.72648 10.1896 5.62062C10.1874 5.59812 10.1836 5.57656 10.1849 5.55406C10.1858 5.52375 10.1874 5.48718 10.2271 5.48718C10.2577 5.48656 10.2718 5.51718 10.2736 5.54625C10.2764 5.58531 10.2871 5.62343 10.2911 5.66312C10.2977 5.73 10.3127 5.795 10.3405 5.85656C10.3527 5.88187 10.3661 5.9175 10.4061 5.88531C10.4152 5.87781 10.4246 5.87343 10.4361 5.87781Z" fill="#BF9200"/>
<path fill-rule="evenodd" clip-rule="evenodd" d="M9.8682 5.58684C9.87289 5.59402 9.87727 5.6009 9.88289 5.60777C9.91445 5.63965 9.89383 5.6734 9.88414 5.70434C9.86164 5.77652 9.81602 5.83715 9.77914 5.9034C9.82914 5.89121 9.84883 5.85184 9.86383 5.81059C9.89227 5.73402 9.91977 5.65684 9.93039 5.57371C9.93195 5.56777 9.93039 5.55902 9.9332 5.55309C9.94883 5.5209 9.94102 5.46434 9.9907 5.46902C10.047 5.47434 10.022 5.52652 10.0201 5.55965C10.0115 5.69121 9.9729 5.81906 9.90727 5.9334C9.8982 5.9484 9.88883 5.96184 9.88758 5.98027C9.87102 5.99559 9.87102 6.01465 9.87539 6.03496C9.8482 6.06871 9.81914 6.08027 9.79633 6.03434C9.78133 6.00371 9.7632 6.01215 9.7407 6.01809C9.69664 6.02965 9.65758 6.02371 9.62789 5.98559C9.60695 5.95996 9.57695 5.95652 9.54664 5.95246C9.46791 5.9409 9.39209 5.91449 9.3232 5.87465C9.2907 5.8584 9.25477 5.8409 9.25195 5.79621C9.25695 5.78465 9.26383 5.77777 9.27727 5.78621C9.39102 5.8459 9.50695 5.89684 9.63914 5.90746C9.6832 5.90996 9.71102 5.8984 9.7357 5.85934C9.78945 5.77277 9.8307 5.6809 9.8682 5.58684Z" fill="#BF9200"/>
<path fill-rule="evenodd" clip-rule="evenodd" d="M9.27645 5.78496C9.26988 5.78902 9.26395 5.79371 9.25707 5.79902C9.2252 5.82402 9.19645 5.80559 9.16707 5.79246C9.10172 5.76277 9.03231 5.74297 8.96113 5.73371C8.87645 5.72215 8.81363 5.76215 8.77957 5.84184C8.76707 5.87371 8.75145 5.90621 8.73426 5.93559C8.69988 5.92715 8.72957 5.89027 8.70801 5.87652C8.73988 5.72027 8.83176 5.65465 8.98801 5.67621C9.09238 5.69059 9.18801 5.72621 9.27645 5.78496ZM10.9011 5.80059C10.8954 5.79516 10.889 5.79044 10.8821 5.78652C10.9789 5.72215 11.0849 5.68496 11.1993 5.67371C11.3333 5.66027 11.4211 5.73371 11.4502 5.87809L11.4355 5.92621C11.3977 5.91246 11.3918 5.87402 11.3789 5.8434C11.343 5.76215 11.2783 5.72215 11.1899 5.7359C11.1211 5.74597 11.0541 5.76564 10.9908 5.79434C10.9618 5.80715 10.9327 5.82527 10.9011 5.80059ZM10.4355 5.87809C10.4302 5.88378 10.4253 5.88984 10.4208 5.89621C10.3843 5.89559 10.3696 5.87027 10.3596 5.84152C10.3264 5.76191 10.3084 5.67681 10.3064 5.59059C10.313 5.56121 10.3218 5.53152 10.3511 5.51465C10.3696 5.63777 10.3852 5.76152 10.4355 5.87809Z" fill="#BF9200"/>
<path fill-rule="evenodd" clip-rule="evenodd" d="M10.3525 5.51555C10.346 5.54055 10.355 5.57023 10.3366 5.59398C10.2919 5.5418 10.2813 5.29023 10.3225 5.23555C10.3266 5.22367 10.3313 5.21305 10.336 5.20117C10.3666 5.30523 10.3538 5.40992 10.3525 5.5168M9.31629 7.96555C9.32129 7.97523 9.32566 7.98617 9.3291 7.99648C9.37129 8.05367 9.3441 8.09586 9.30035 8.13461C9.27535 8.13711 9.28379 8.11211 9.27441 8.10211C9.28598 8.05586 9.29379 8.00773 9.31629 7.96555ZM10.8297 7.9968C10.8338 7.9868 10.8379 7.97586 10.8425 7.96586C10.865 8.00805 10.8732 8.05617 10.8844 8.10273C10.8757 8.11242 10.8844 8.13742 10.8585 8.13523C10.8147 8.09648 10.7875 8.05398 10.8297 7.9968Z" fill="#BF9200"/>
<path fill-rule="evenodd" clip-rule="evenodd" d="M9.27516 8.10311C9.28078 8.11342 9.28516 8.12436 9.29078 8.13592C9.31984 8.18155 9.31703 8.21842 9.25953 8.23842C9.25453 8.22842 9.25109 8.21842 9.24609 8.20811C9.25609 8.17342 9.26547 8.13811 9.27516 8.10311ZM10.8702 8.13623C10.8748 8.12467 10.8792 8.11373 10.8848 8.10342C10.8942 8.13811 10.9039 8.17373 10.9142 8.20873C10.9089 8.21873 10.9055 8.22873 10.9005 8.23905C10.843 8.21842 10.8402 8.18186 10.8702 8.13623ZM9.49547 6.73155C9.47703 6.69905 9.47359 6.66311 9.46641 6.6278C9.44359 6.5903 9.46422 6.55405 9.46859 6.51686C9.48266 6.58217 9.49703 6.64811 9.51047 6.71405C9.50578 6.71998 9.50578 6.73092 9.49547 6.73155ZM9.43422 7.53311C9.44078 7.5178 9.44609 7.5028 9.45203 7.48842C9.46453 7.49467 9.45734 7.5103 9.46453 7.51842C9.45578 7.56467 9.44703 7.61311 9.42391 7.65561C9.41922 7.63936 9.41578 7.62248 9.41047 7.60498C9.42234 7.58248 9.40641 7.5503 9.43422 7.53311ZM9.67641 6.26248C9.64578 6.26655 9.61609 6.27217 9.58641 6.27748C9.57047 6.27217 9.55422 6.26811 9.53891 6.26342C9.57141 6.2503 9.60609 6.24998 9.64109 6.24842C9.65578 6.2453 9.67328 6.23311 9.67641 6.26248ZM9.13734 8.40373C9.19516 8.41592 9.25453 8.42217 9.30922 8.44311C9.39922 8.47592 9.44391 8.4328 9.47578 8.35873C9.49453 8.35623 9.51109 8.3578 9.52609 8.3703C9.54641 8.38623 9.57641 8.3903 9.58328 8.42248C9.59109 8.46373 9.62203 8.4728 9.65891 8.46842C9.73266 8.47842 9.80578 8.48873 9.88109 8.48061C9.88488 8.48127 9.88849 8.48269 9.89172 8.48478C9.89494 8.48688 9.8977 8.4896 9.89984 8.4928V8.51842C9.81604 8.52926 9.7312 8.52946 9.64734 8.51905C9.56922 8.50905 9.51703 8.53186 9.48516 8.6178C9.46109 8.48373 9.36172 8.47436 9.26266 8.4578C9.20891 8.44998 9.15484 8.44248 9.10547 8.41655C9.11641 8.4128 9.12672 8.4078 9.13734 8.40373ZM10.6842 8.35967C10.6789 8.39061 10.7202 8.39123 10.7223 8.41686L10.708 8.43311C10.6923 8.44655 10.6595 8.4453 10.6608 8.47467C10.6636 8.4978 10.6927 8.49311 10.707 8.5053L10.7217 8.52123C10.7067 8.55061 10.6908 8.57967 10.6708 8.61936C10.6439 8.53592 10.5905 8.50655 10.5142 8.51998C10.4592 8.49561 10.4023 8.51373 10.3464 8.50842C10.317 8.50592 10.2867 8.5128 10.2605 8.49436C10.3089 8.44561 10.3717 8.47061 10.4273 8.46936C10.4945 8.46655 10.5595 8.48155 10.5905 8.39905C10.5961 8.38467 10.6202 8.38248 10.6339 8.37217C10.6477 8.35873 10.6655 8.35655 10.6842 8.35967ZM10.6967 7.51842C10.69 7.49639 10.6834 7.47431 10.677 7.45217C10.6642 7.44217 10.6498 7.43561 10.642 7.42061C10.5916 7.30416 10.5583 7.181 10.5433 7.05498C10.5417 7.0403 10.5448 7.02623 10.5408 7.01092C10.5817 6.89811 10.6392 6.7903 10.6536 6.66873C10.6608 6.67405 10.6689 6.67811 10.6764 6.68342C10.7014 6.74842 10.6898 6.81748 10.6927 6.88498C10.7002 7.08405 10.7014 7.28405 10.7286 7.48092C10.7252 7.5003 10.722 7.51905 10.6967 7.51842ZM10.5745 6.2778C10.5167 6.27842 10.4636 6.26092 10.4089 6.24811C10.4111 6.21842 10.4298 6.23061 10.4445 6.23311C10.5033 6.24311 10.5633 6.25342 10.6211 6.26217C10.6057 6.26789 10.5902 6.27311 10.5745 6.2778Z" fill="#BF9200"/>
<path fill-rule="evenodd" clip-rule="evenodd" d="M10.7095 7.48871C10.7151 7.50309 10.7211 7.51871 10.7273 7.5334C10.7551 7.55059 10.7392 7.58277 10.7507 7.6059C10.7457 7.62277 10.7423 7.63965 10.7379 7.65652C10.7145 7.61309 10.707 7.5659 10.6967 7.51871C10.7004 7.50871 10.7054 7.49902 10.7095 7.48871ZM10.3501 7.53465C10.3073 7.61871 10.2582 7.7009 10.2901 7.80152C10.2979 7.81465 10.2895 7.82902 10.2923 7.84246C10.317 7.93652 10.3436 8.03121 10.3486 8.12996C10.342 8.15677 10.3429 8.18485 10.3511 8.21121C10.3889 8.23871 10.4011 8.27184 10.3642 8.30996C10.3596 8.31535 10.3553 8.32087 10.3511 8.32652C10.3261 8.32934 10.3045 8.34371 10.2789 8.3409C10.2289 8.33465 10.1842 8.3159 10.1798 8.26027C10.1732 8.18309 10.162 8.10559 10.1548 8.0284C10.1554 7.98121 10.1457 7.93527 10.1445 7.8884C10.1389 7.87152 10.1417 7.85246 10.1351 7.83715C10.1372 7.84204 10.1386 7.84719 10.1392 7.85246C10.1392 7.87184 10.1457 7.88902 10.1473 7.90902C10.1561 7.97465 10.1457 8.04371 10.1682 8.1084C10.1676 8.15777 10.1789 8.20652 10.1767 8.25684C10.1757 8.32309 10.1304 8.37371 10.0767 8.3709C10.0261 8.36902 9.98418 8.31965 9.98356 8.25684C9.98262 8.20309 9.99075 8.1484 9.99512 8.09496C10.0123 8.03402 10.007 7.97121 10.0136 7.90902C10.0161 7.8759 10.0307 7.84402 10.0273 7.81059C10.0295 7.84152 10.0204 7.87027 10.0139 7.89965C10.0173 7.94246 10.0039 7.98465 10.0057 8.02715C9.99606 8.10246 9.98762 8.17715 9.98231 8.2534C9.97825 8.30777 9.93106 8.34215 9.87418 8.34121C9.85137 8.34059 9.832 8.3284 9.80981 8.32684L9.79637 8.31027C9.76043 8.27215 9.77137 8.23934 9.80918 8.21152C9.81512 8.1859 9.82043 8.1584 9.82668 8.13277C9.82106 8.0659 9.81825 7.99965 9.84481 7.93559C9.85137 7.91715 9.84481 7.90746 9.8245 7.90809C9.81985 7.90298 9.81556 7.89755 9.81168 7.89184C9.837 7.85246 9.86231 7.81277 9.88793 7.77434C9.90016 7.74551 9.90704 7.71469 9.90825 7.6834C9.90918 7.63027 9.91512 7.57746 9.93575 7.52684C9.94424 7.5085 9.95897 7.49377 9.97731 7.48527C10.0804 7.56027 10.0804 7.56027 10.1839 7.48371C10.2008 7.49286 10.2147 7.50676 10.2239 7.52371C10.2388 7.56141 10.2479 7.60112 10.2511 7.64152C10.2516 7.58496 10.2691 7.52987 10.3014 7.4834C10.3088 7.47451 10.3195 7.4689 10.3311 7.46777C10.3579 7.47215 10.3723 7.48777 10.3736 7.51496C10.3701 7.52715 10.3645 7.53684 10.3501 7.53465Z" fill="#BF9200"/>
<path fill-rule="evenodd" clip-rule="evenodd" d="M10.3467 7.92559C10.3223 7.89434 10.2982 7.86277 10.2732 7.83152C10.2785 7.82121 10.2838 7.81184 10.2895 7.80215C10.3192 7.83465 10.3413 7.87059 10.361 7.90934L10.3467 7.92559ZM9.95947 5.93402C10.0198 5.86715 10.0198 5.77996 10.0332 5.69809C10.0467 5.62027 10.0517 5.54184 10.0601 5.45996C10.0917 5.4709 10.0832 5.48965 10.0823 5.50402C10.0735 5.63059 10.0613 5.75715 10.0248 5.87934C10.0195 5.8984 10.0117 5.91684 10.0195 5.93715C10.0138 5.94246 10.0098 5.94809 10.0048 5.95246H9.97603C9.95947 5.95715 9.95541 5.94965 9.95947 5.93402ZM10.1385 5.78215C10.1173 5.6809 10.1285 5.57965 10.1238 5.46965C10.1648 5.49184 10.1507 5.51621 10.1513 5.5359C10.1257 5.61684 10.147 5.70059 10.1385 5.78215Z" fill="#BF9200"/>
<path fill-rule="evenodd" clip-rule="evenodd" d="M9.95906 5.93359C9.96447 5.94004 9.9702 5.94619 9.97625 5.95203C9.945 5.98328 9.91031 6.00766 9.86969 6.02422C9.85031 6.01078 9.85156 5.99672 9.86969 5.98328C9.90719 5.98078 9.93 5.95141 9.95906 5.93359ZM9.67594 6.26266C9.66438 6.25797 9.65219 6.25391 9.64062 6.24859C9.73062 6.22297 9.81969 6.19859 9.91 6.17359C9.92531 6.16734 9.93 6.17297 9.93 6.18797C9.84853 6.22272 9.76326 6.24779 9.67594 6.26266ZM10.2831 6.20828C10.2242 6.19605 10.1691 6.16954 10.1228 6.13109C10.1244 6.12172 10.1322 6.12109 10.1391 6.11828L10.3031 6.19172C10.3047 6.20703 10.3006 6.21516 10.2831 6.20828Z" fill="#BF9200"/>
<path fill-rule="evenodd" clip-rule="evenodd" d="M9.93016 6.18719C9.92364 6.18219 9.91697 6.1774 9.91016 6.17281L10.0505 6.10156C10.0538 6.10274 10.0569 6.1046 10.0594 6.10702C10.062 6.10944 10.0641 6.11237 10.0655 6.11563C10.0267 6.15313 9.97828 6.17094 9.93016 6.18719ZM10.2833 6.20781L10.3033 6.19156C10.3498 6.20531 10.3977 6.21969 10.4439 6.23281C10.4323 6.23844 10.4202 6.2425 10.4083 6.24781C10.3658 6.23844 10.3217 6.23031 10.2833 6.20781Z" fill="#BF9200"/>
<path fill-rule="evenodd" clip-rule="evenodd" d="M10.0656 6.11632C10.06 6.11163 10.0562 6.10695 10.0506 6.10226C10.0916 6.04538 10.1112 6.10038 10.1394 6.11851L10.1231 6.13132C10.1047 6.12601 10.0906 6.1007 10.0656 6.11632ZM10.2744 7.33507C10.2887 7.28788 10.2919 7.2407 10.2919 7.19132C10.2906 6.90945 10.2919 6.62851 10.2906 6.34663C10.2906 6.31882 10.3041 6.28726 10.2744 6.2632C10.2703 6.26132 10.2688 6.25945 10.2703 6.25663C10.2716 6.25382 10.2728 6.25257 10.2744 6.25257C10.3931 6.27632 10.5087 6.31632 10.6322 6.31632C10.6647 6.31695 10.6663 6.33788 10.6653 6.36195C10.6497 6.73288 10.5284 7.0607 10.2744 7.33507ZM9.88437 6.26288C9.84906 6.26945 9.85469 6.2982 9.85469 6.32101C9.85469 6.62538 9.85625 6.93038 9.85344 7.23476C9.85344 7.2657 9.875 7.28976 9.87188 7.31976C9.67219 7.10351 9.56219 6.84476 9.51344 6.55882C9.50219 6.4932 9.50063 6.4257 9.49531 6.35851C9.49188 6.32788 9.50312 6.31445 9.53562 6.31445C9.65062 6.31195 9.76031 6.27726 9.87031 6.24945C9.88594 6.24195 9.8875 6.2507 9.88437 6.26288ZM9.46563 7.51882C9.46188 7.50865 9.45771 7.49864 9.45312 7.48882C9.50312 7.23882 9.49781 6.98507 9.49687 6.73163L9.51187 6.71445C9.54781 6.8132 9.58437 6.91132 9.62031 7.00945C9.62844 7.02507 9.61969 7.03913 9.62188 7.05413C9.60375 7.18038 9.57187 7.3032 9.52062 7.42101C9.51375 7.43601 9.49875 7.44257 9.48656 7.45195C9.47938 7.47445 9.47281 7.49757 9.46563 7.51882ZM10.35 7.53507C10.355 7.52976 10.3588 7.52413 10.3638 7.51882C10.4244 7.49913 10.4047 7.44976 10.4047 7.40851C10.4034 7.3657 10.3712 7.36726 10.3412 7.36507C10.3359 7.36367 10.3312 7.36061 10.3278 7.35633C10.3244 7.35206 10.3224 7.3468 10.3222 7.34132C10.4006 7.23663 10.4747 7.12695 10.5387 7.01132C10.545 7.0207 10.5512 7.03101 10.5578 7.04038C10.5366 7.11906 10.5226 7.19949 10.5159 7.2807C10.5081 7.3882 10.5572 7.4307 10.6591 7.41132C10.6647 7.42413 10.67 7.4382 10.6753 7.45257C10.62 7.54382 10.62 7.54382 10.5378 7.46382C10.5203 7.44694 10.5016 7.43038 10.4741 7.40476L10.4403 7.65945L10.35 7.53507Z" fill="#BF9200"/>
<path fill-rule="evenodd" clip-rule="evenodd" d="M9.48438 7.4514L9.5 7.41109C9.56938 7.43984 9.61094 7.40265 9.64656 7.35078C9.66313 7.32984 9.67063 7.3014 9.69625 7.28859C9.71531 7.28515 9.73594 7.28609 9.75094 7.2689C9.75504 7.26586 9.75994 7.26406 9.76504 7.26373C9.77014 7.2634 9.77522 7.26454 9.77969 7.26703C9.795 7.28609 9.81656 7.30015 9.82156 7.32703C9.82132 7.33375 9.81891 7.34022 9.81469 7.34547C9.79281 7.3614 9.75875 7.36203 9.74844 7.39359C9.73094 7.41203 9.73031 7.44703 9.69438 7.44484C9.68625 7.43484 9.69844 7.39296 9.66406 7.42421C9.63753 7.44642 9.61267 7.47055 9.58969 7.4964C9.55125 7.5414 9.52188 7.54984 9.50313 7.4814C9.49969 7.47047 9.49125 7.4614 9.48438 7.4514Z" fill="#BF9200"/>
<path fill-rule="evenodd" clip-rule="evenodd" d="M9.70184 7.29565C9.69371 7.32065 9.68527 7.34471 9.67809 7.37034C9.65465 7.36127 9.64684 7.34034 9.64527 7.31721C9.63666 7.22432 9.62173 7.13213 9.60059 7.04127C9.6059 7.03002 9.61215 7.02002 9.61746 7.00846C9.65184 7.06877 9.68715 7.12752 9.72152 7.18784C9.72502 7.19325 9.72696 7.19952 9.72715 7.20596C9.71902 7.22752 9.71996 7.25002 9.72059 7.27284C9.71809 7.28346 9.7134 7.29159 9.70184 7.29565ZM9.81027 7.33127C9.8134 7.32846 9.81684 7.32752 9.82027 7.32565C9.87246 7.37877 9.92434 7.43065 9.97527 7.48409C9.9766 7.5018 9.9721 7.51947 9.96246 7.5344C9.92434 7.51909 9.90027 7.47346 9.8509 7.48409C9.84123 7.48052 9.83322 7.47351 9.8284 7.4644C9.83777 7.41784 9.78184 7.38002 9.81027 7.33127ZM10.3206 7.34065C10.3246 7.34302 10.328 7.34622 10.3306 7.35002C10.35 7.39221 10.3393 7.43346 10.3293 7.47502L10.315 7.49159C10.2665 7.47909 10.2318 7.51221 10.1946 7.53502C10.1825 7.51909 10.1818 7.50096 10.1809 7.48315C10.2271 7.43596 10.275 7.38846 10.3206 7.34065ZM9.88465 7.34065C9.94965 7.3569 9.98402 7.40502 10.0125 7.46065C9.96059 7.43127 9.92277 7.38596 9.88465 7.34065ZM10.1209 6.18909C10.0759 6.15596 10.044 6.21221 10.0028 6.20534C10.0403 6.18471 10.0681 6.09846 10.1209 6.18909ZM10.0268 7.4594C10.0659 7.50127 10.1037 7.4769 10.1412 7.45596C10.1306 7.48877 10.1081 7.51502 10.0759 7.51502C10.0521 7.51409 10.0281 7.49127 10.0268 7.4594Z" fill="#BF9200"/>
<path fill-rule="evenodd" clip-rule="evenodd" d="M9.71809 7.21293C9.71871 7.20418 9.72027 7.19668 9.72152 7.18856C9.74059 7.21481 9.75871 7.24074 9.77871 7.26699C9.77339 7.27232 9.76838 7.27795 9.76371 7.28387C9.7259 7.28637 9.72027 7.25606 9.70996 7.23168C9.71083 7.22479 9.71365 7.21828 9.71809 7.21293ZM10.1837 7.41606C10.2012 7.38731 10.2115 7.34887 10.2581 7.35699C10.2371 7.3823 10.219 7.41043 10.1837 7.41606ZM10.2737 6.25105V6.26199C10.2471 6.25418 10.215 6.25543 10.2012 6.22168C10.2279 6.22335 10.2534 6.23366 10.2737 6.25105ZM9.88371 6.26262C9.87934 6.25855 9.87465 6.25387 9.86965 6.2498C9.89152 6.23074 9.91652 6.22168 9.94434 6.23762C9.9284 6.25637 9.90496 6.25793 9.88371 6.26262ZM9.83996 7.45824L9.85402 7.47481C9.89527 7.51887 9.8984 7.57605 9.90809 7.63043C9.9134 7.65324 9.91121 7.6773 9.9284 7.6973C9.92777 7.73043 9.90496 7.75074 9.88652 7.77449C9.86934 7.69168 9.85652 7.60793 9.80934 7.5348C9.79527 7.53887 9.78902 7.52949 9.78465 7.51699C9.78465 7.4798 9.79715 7.45512 9.83996 7.45824Z" fill="#BF9200"/>
<path fill-rule="evenodd" clip-rule="evenodd" d="M9.79514 7.51703L9.81014 7.53484C9.78608 7.57047 9.76014 7.63578 9.72826 7.62922C9.68326 7.61828 9.71264 7.55109 9.70045 7.51078C9.6942 7.48953 9.69639 7.46641 9.6942 7.44484C9.70233 7.41984 9.71108 7.39484 9.7192 7.37109C9.75576 7.38703 9.75233 7.42109 9.75233 7.45266C9.75233 7.48422 9.76108 7.50766 9.79514 7.51703ZM10.6279 8.80641C10.6064 8.81078 10.5805 8.82078 10.5767 8.78547C10.5745 8.75297 10.5954 8.73453 10.6192 8.71984C10.6626 8.69359 10.657 8.75172 10.6867 8.76547C10.6914 8.71328 10.7495 8.68828 10.7323 8.63141C10.7311 8.62797 10.7436 8.61734 10.752 8.61359C10.7542 8.61234 10.7664 8.61984 10.767 8.62391C10.7705 8.68016 10.8376 8.67453 10.8542 8.71703C10.858 8.72797 10.8751 8.73203 10.8783 8.72453C10.9092 8.66609 10.9555 8.69047 11.0036 8.70453C10.9955 8.66359 10.9879 8.63078 10.9814 8.59828C10.9748 8.56578 10.9639 8.53797 10.922 8.55484C10.9042 8.56203 10.8911 8.55422 10.8892 8.53828C10.8845 8.51766 10.9061 8.51859 10.9189 8.51484C10.9795 8.49922 11.0051 8.53109 11.017 8.58578C11.0258 8.63547 11.0161 8.70641 11.107 8.67172C11.1117 8.66953 11.1251 8.68047 11.1289 8.68797C11.1351 8.70141 11.1192 8.70766 11.1133 8.70703C11.0326 8.70203 10.9814 8.79859 10.8942 8.76922C10.8792 8.76516 10.8726 8.77484 10.8676 8.78828C10.8461 8.84078 10.8205 8.84766 10.7739 8.80797C10.7314 8.77234 10.6917 8.79297 10.663 8.83422C10.6345 8.84359 10.6454 8.80766 10.6279 8.80641ZM9.71858 8.88484C9.77858 8.86391 9.81733 8.83859 9.78389 8.77859C9.77326 8.75922 9.78014 8.74141 9.7992 8.73578C9.8167 8.72922 9.82014 8.74859 9.82639 8.76203C9.83264 8.77578 9.83701 8.79266 9.85608 8.78703C9.87576 8.78234 9.86889 8.76359 9.86795 8.74984C9.86639 8.73297 9.85889 8.71266 9.87983 8.70328C9.9042 8.69328 9.9042 8.72109 9.91608 8.73047C9.95201 8.75484 9.99358 8.73953 10.032 8.74328C10.0664 8.74891 10.1076 8.73953 10.0948 8.79828C10.1273 8.79391 10.1251 8.76641 10.1426 8.75672C10.1626 8.74609 10.1883 8.72922 10.2033 8.74609C10.217 8.76234 10.2158 8.79266 10.2158 8.81734C10.2164 8.84484 10.193 8.84484 10.173 8.84578C10.137 8.84641 10.1008 8.83922 10.0767 8.88234C10.0651 8.90234 10.0395 8.90109 10.0179 8.88328C9.94201 8.82359 9.87858 8.82141 9.80576 8.87547C9.78483 8.89172 9.76201 8.89547 9.71858 8.88484ZM9.62545 8.83016C9.6392 8.75422 9.65264 8.69609 9.64889 8.63578C9.64764 8.61484 9.65483 8.59891 9.67326 8.59891C9.70451 8.59891 9.68983 8.62391 9.68764 8.63734C9.68014 8.69891 9.67076 8.75984 9.66045 8.82141C9.65639 8.84234 9.64076 8.85641 9.62076 8.86266C9.60108 8.86828 9.58826 8.85703 9.57639 8.84266C9.52951 8.77891 9.45826 8.76109 9.39076 8.80109C9.36826 8.81453 9.34701 8.82484 9.31358 8.81328C9.3592 8.78828 9.39233 8.75984 9.37108 8.70453C9.36701 8.69422 9.37576 8.67734 9.38889 8.67516C9.40483 8.67172 9.40733 8.68797 9.40889 8.70016C9.41233 8.72234 9.41545 8.74484 9.44326 8.75016C9.4567 8.75266 9.46858 8.75266 9.47764 8.74297C9.48514 8.73359 9.4742 8.72641 9.46858 8.71859C9.42701 8.65391 9.51295 8.67266 9.52576 8.63797C9.53608 8.61234 9.56951 8.63734 9.57014 8.65953C9.57139 8.68797 9.65576 8.71703 9.57264 8.74578C9.58701 8.76984 9.60201 8.79266 9.62545 8.83016ZM9.0842 8.52172C9.11826 8.49953 9.15639 8.49391 9.18045 8.50672C9.19983 8.51766 9.17608 8.55078 9.17014 8.57453C9.16889 8.57922 9.1667 8.58391 9.16639 8.58922C9.1617 8.61984 9.12389 8.66359 9.15983 8.68016C9.21326 8.70266 9.18514 8.63578 9.20545 8.61859C9.2142 8.61234 9.22608 8.61016 9.24264 8.60328C9.24108 8.61984 9.2417 8.62922 9.24045 8.63859C9.23483 8.66484 9.20795 8.69797 9.2567 8.70891C9.30233 8.71984 9.2942 8.69047 9.2942 8.66141C9.29451 8.63953 9.32108 8.63703 9.34045 8.63609C9.34201 8.63953 9.34451 8.64203 9.34389 8.64422C9.31201 8.77609 9.33264 8.76328 9.20264 8.73203C9.1667 8.72422 9.13139 8.71297 9.09576 8.70203C9.07733 8.69766 9.05108 8.70016 9.04889 8.67391C9.04764 8.64641 9.06608 8.62891 9.0917 8.61828C9.10582 8.61492 9.11891 8.60816 9.12983 8.59859C9.16076 8.56297 9.14451 8.53172 9.0842 8.52172ZM10.3011 8.84703C10.2411 8.83141 10.2651 8.78828 10.2861 8.76984C10.327 8.73641 10.3276 8.70016 10.3111 8.65828C10.302 8.63484 10.312 8.62266 10.3295 8.61984C10.3511 8.61734 10.3473 8.63891 10.3492 8.65234C10.3542 8.68984 10.3573 8.72609 10.3623 8.76297C10.3639 8.78297 10.3645 8.80703 10.3945 8.79891C10.4164 8.79297 10.4211 8.77797 10.4117 8.75859C10.4045 8.74141 10.3958 8.72297 10.4198 8.71672C10.4523 8.70891 10.4448 8.73891 10.4505 8.75547C10.4701 8.81953 10.4395 8.84078 10.3798 8.83703C10.3567 8.86547 10.327 8.84266 10.3011 8.84703ZM10.4567 8.88484C10.5033 8.83922 10.5361 8.80547 10.4867 8.75953C10.4723 8.74766 10.4851 8.72453 10.5017 8.71703C10.5192 8.71047 10.5236 8.73047 10.5317 8.74266C10.573 8.81047 10.5567 8.85547 10.4567 8.88484ZM9.72483 8.60047C9.74764 8.61266 9.76795 8.61891 9.75795 8.64453C9.73951 8.68891 9.73951 8.73609 9.73545 8.78172C9.7342 8.79766 9.73545 8.82172 9.71045 8.81672C9.68483 8.81203 9.69764 8.78984 9.69983 8.77484C9.70233 8.74484 9.70639 8.71609 9.71045 8.68703C9.71483 8.66016 9.71858 8.63359 9.72483 8.60047Z" fill="#BF9200"/>
<path fill-rule="evenodd" clip-rule="evenodd" d="M10.3783 8.85141C10.3933 8.85703 10.4086 8.86922 10.3973 8.88359C10.3783 8.90516 10.3483 8.88766 10.3233 8.89141C10.307 8.89484 10.3042 8.87391 10.3167 8.85953C10.3352 8.84578 10.357 8.84953 10.3783 8.85141ZM10.6283 8.80609C10.6398 8.81547 10.6502 8.82516 10.6627 8.83359C10.6489 8.86516 10.6248 8.86828 10.5942 8.86297C10.6011 8.83953 10.6448 8.84047 10.6283 8.80609ZM10.283 8.65328C10.2795 8.66734 10.2717 8.67047 10.2623 8.66734C10.2567 8.66578 10.2502 8.65766 10.2502 8.65453C10.2508 8.64234 10.2598 8.63734 10.2711 8.64109C10.2761 8.64297 10.2798 8.64891 10.283 8.65328ZM10.287 8.71234C10.2811 8.71953 10.2745 8.72797 10.2645 8.72234C10.2558 8.71672 10.2486 8.70922 10.2548 8.69891C10.2598 8.68953 10.267 8.68234 10.2773 8.68953C10.2858 8.69328 10.292 8.70109 10.287 8.71234ZM11.0802 8.76078C11.0758 8.77453 11.0667 8.77734 11.0564 8.77641C11.047 8.77516 11.0355 8.77078 11.042 8.75797C11.0455 8.75141 11.0555 8.74578 11.0636 8.74453C11.0748 8.74328 11.0792 8.75234 11.0802 8.76078ZM9.11579 8.74266C9.11016 8.75391 9.10297 8.76078 9.09204 8.75547C9.08704 8.75234 9.08172 8.74391 9.08329 8.73828C9.08547 8.72922 9.09485 8.72359 9.10485 8.72922C9.11016 8.73109 9.11297 8.73859 9.11579 8.74266ZM9.26204 8.78391C9.25485 8.78859 9.24985 8.79516 9.24516 8.79578C9.23329 8.79828 9.22641 8.78953 9.23016 8.77984C9.23204 8.77484 9.24079 8.77047 9.24641 8.77047C9.25047 8.77078 9.25485 8.77828 9.26204 8.78391ZM9.28422 8.37203C9.30556 8.36674 9.32788 8.36686 9.34916 8.37237C9.37044 8.37788 9.39001 8.38861 9.4061 8.40359C9.3611 8.41078 9.32204 8.39516 9.28422 8.37203ZM9.10641 8.31891C9.12625 8.31317 9.14733 8.31328 9.16711 8.31921C9.1869 8.32514 9.20455 8.33664 9.21797 8.35234C9.17891 8.35953 9.14579 8.34453 9.10641 8.31891ZM10.7548 8.39922C10.7895 8.37203 10.8317 8.36578 10.8739 8.36391C10.8752 8.37016 10.8777 8.37609 10.8792 8.38234L10.7611 8.41703L10.7548 8.39922ZM10.9333 8.35641C10.9683 8.31984 11.0036 8.31172 11.0542 8.31484C11.0384 8.33033 11.0194 8.34209 10.9984 8.34928C10.9775 8.35647 10.9553 8.35891 10.9333 8.35641ZM9.64704 8.49297H9.8861C9.80787 8.51452 9.72527 8.51452 9.64704 8.49297ZM10.0189 7.89297C10.0148 7.89355 10.0108 7.89428 10.0067 7.89516L10.0258 7.76172C10.0361 7.82047 10.0411 7.85797 10.0189 7.89297ZM10.1277 7.84734V7.77922C10.1458 7.79766 10.1383 7.81578 10.1414 7.83266C10.1486 7.84828 10.1402 7.84984 10.1277 7.84734Z" fill="#BF9200"/>
<path fill-rule="evenodd" clip-rule="evenodd" d="M10.1267 7.84769C10.1311 7.84264 10.1357 7.83775 10.1404 7.83301C10.1459 7.83963 10.1496 7.84745 10.1514 7.85582C10.1532 7.86419 10.153 7.87287 10.1507 7.88113C10.1466 7.88572 10.1421 7.89 10.1373 7.89395C10.1251 7.88113 10.1242 7.86426 10.1267 7.84769ZM9.7148 8.44051C9.67082 8.45005 9.6254 8.45101 9.58105 8.44332C9.62793 8.40676 9.66637 8.40551 9.7148 8.44051ZM9.87449 8.44801C9.84262 8.46301 9.80824 8.46082 9.77199 8.46301C9.7773 8.43394 9.79543 8.43551 9.81199 8.43551C9.83105 8.44519 9.85637 8.42832 9.87449 8.44801Z" fill="#BF9200"/>
<path fill-rule="evenodd" clip-rule="evenodd" d="M9.875 8.44745C9.85344 8.44401 9.83062 8.44745 9.8125 8.43495C9.8375 8.43339 9.86156 8.43182 9.88563 8.43182C9.89219 8.43182 9.90031 8.43839 9.88875 8.44464C9.88531 8.44745 9.87969 8.44589 9.875 8.44745ZM10.5672 8.43526C10.5281 8.44932 10.4857 8.4516 10.4453 8.44182C10.4887 8.40057 10.5272 8.41682 10.5672 8.43526ZM10.3497 8.43495C10.3647 8.43182 10.3772 8.43807 10.395 8.4562C10.3586 8.46467 10.3205 8.46161 10.2859 8.44745C10.3044 8.42776 10.3294 8.44464 10.3497 8.43495Z" fill="#BF9200"/>
<path fill-rule="evenodd" clip-rule="evenodd" d="M10.3501 8.43491C10.3304 8.44741 10.3079 8.44397 10.2864 8.44741C10.2801 8.44397 10.2529 8.44584 10.2742 8.43491C10.2932 8.42334 10.3236 8.43334 10.3501 8.43491ZM9.71886 7.22241C9.70261 7.2346 9.70949 7.25272 9.70386 7.26772C9.69324 7.24772 9.68605 7.22678 9.69605 7.20616C9.70011 7.19616 9.71168 7.20741 9.71886 7.21241V7.22241ZM9.53105 8.68116C9.5373 8.68803 9.54386 8.69209 9.54511 8.69772C9.55168 8.71303 9.53855 8.71303 9.5298 8.71178C9.5248 8.71178 9.51699 8.70335 9.51761 8.69897C9.51824 8.69335 9.5248 8.68803 9.53105 8.68116Z" fill="#BF9200"/>
</svg>
