<svg width="33" height="32" viewBox="0 0 33 32" fill="none" xmlns="http://www.w3.org/2000/svg">
<g clip-path="url(#clip0_916_43)">
<path d="M9.85833 0.1119C8.15593 0.19222 6.99337 0.4639 5.97705 0.86326C4.92521 1.27318 4.03369 1.82326 3.14665 2.7135C2.25961 3.60374 1.71337 4.4959 1.30633 5.54934C0.912409 6.5679 0.645529 7.73142 0.570329 9.43478C0.495129 11.1381 0.478489 11.6857 0.486809 16.0306C0.495129 20.3756 0.514329 20.9202 0.596889 22.6271C0.678169 24.3292 0.948889 25.4914 1.34825 26.5081C1.75881 27.5599 2.30825 28.4511 3.19881 29.3385C4.08937 30.2258 4.98089 30.7708 6.03689 31.1785C7.05449 31.5717 8.21833 31.8399 9.92137 31.9145C11.6244 31.989 12.1726 32.0063 16.5162 31.998C20.8599 31.9897 21.4068 31.9705 23.1134 31.8895C24.8199 31.8085 25.9761 31.5359 26.993 31.1385C28.0449 30.7269 28.9367 30.1785 29.8234 29.2876C30.7102 28.3967 31.2561 27.5039 31.6628 26.4498C32.057 25.4322 32.3249 24.2684 32.3988 22.5666C32.4734 20.8588 32.491 20.3135 32.4826 15.9692C32.4743 11.6249 32.4548 11.0802 32.3738 9.37398C32.2929 7.66774 32.0218 6.50902 31.6228 5.49174C31.2116 4.4399 30.6628 3.54934 29.7726 2.66134C28.8823 1.77334 27.9889 1.22774 26.9351 0.82198C25.9169 0.42806 24.7537 0.15958 23.0506 0.0859802C21.3476 0.0123802 20.7994 -0.00649982 16.4542 0.00182018C12.1089 0.0101402 11.5649 0.0287002 9.85833 0.1119ZM10.0452 29.0361C8.48521 28.9682 7.63817 28.709 7.07369 28.4921C6.32617 28.2041 5.79369 27.8559 5.23113 27.2988C4.66857 26.7417 4.32297 26.2073 4.03113 25.4613C3.81193 24.8969 3.54793 24.0508 3.47497 22.4908C3.39561 20.8047 3.37897 20.2985 3.36969 16.0268C3.36041 11.7551 3.37673 11.2495 3.45065 9.56278C3.51721 8.00406 3.77801 7.15606 3.99465 6.5919C4.28265 5.84342 4.62953 5.3119 5.18793 4.74966C5.74633 4.18742 6.27913 3.84118 7.02569 3.54934C7.58953 3.32918 8.43561 3.06742 9.99497 2.99318C11.6823 2.91318 12.1879 2.89718 16.459 2.8879C20.73 2.87862 21.2369 2.89462 22.9249 2.96886C24.4836 3.0367 25.3319 3.29494 25.8954 3.51286C26.6433 3.80086 27.1754 4.14678 27.7377 4.70614C28.2999 5.2655 28.6465 5.79638 28.9383 6.54454C29.1588 7.10678 29.4206 7.95254 29.4942 9.51286C29.5745 11.2002 29.5927 11.7061 29.6004 15.9769C29.6081 20.2476 29.593 20.7548 29.5191 22.4409C29.451 24.0009 29.1924 24.8482 28.9751 25.4133C28.6871 26.1605 28.3399 26.6933 27.7812 27.2553C27.2225 27.8172 26.6903 28.1634 25.9434 28.4553C25.3802 28.6751 24.5332 28.9375 22.9751 29.0117C21.2878 29.0911 20.7822 29.1077 16.5095 29.117C12.2369 29.1263 11.7329 29.109 10.0455 29.0361M23.0887 7.44854C23.0894 7.82831 23.2026 8.19936 23.4141 8.51476C23.6257 8.83016 23.926 9.07575 24.2771 9.22047C24.6282 9.36518 25.0143 9.40252 25.3867 9.32777C25.759 9.25301 26.1008 9.06952 26.3689 8.80049C26.6369 8.53146 26.8191 8.18899 26.8925 7.81638C26.9659 7.44377 26.9272 7.05777 26.7812 6.70719C26.6352 6.35661 26.3885 6.0572 26.0723 5.84683C25.7561 5.63646 25.3847 5.52458 25.0049 5.52534C24.4958 5.52636 24.0079 5.72953 23.6486 6.09018C23.2893 6.45083 23.0879 6.93944 23.0887 7.44854ZM8.26953 16.0159C8.27849 20.5535 11.9636 24.2236 16.5002 24.2149C21.0369 24.2063 24.7095 20.5215 24.7009 15.9839C24.6922 11.4463 21.0062 7.77526 16.4689 7.78422C11.9316 7.79318 8.26089 11.4789 8.26953 16.0159ZM11.1514 16.0101C11.1494 14.9553 11.4601 13.9235 12.0444 13.0453C12.6287 12.167 13.4604 11.4818 14.4341 11.0762C15.4079 10.6706 16.48 10.5628 17.515 10.7666C18.55 10.9703 19.5013 11.4764 20.2487 12.2208C20.9961 12.9652 21.5059 13.9146 21.7138 14.9487C21.9216 15.9829 21.8181 17.0555 21.4164 18.0308C21.0146 19.0062 20.3327 19.8405 19.4568 20.4283C18.5808 21.0161 17.5503 21.3309 16.4954 21.333C15.795 21.3345 15.1012 21.198 14.4535 20.9312C13.8059 20.6645 13.2171 20.2728 12.7209 19.7785C12.2246 19.2843 11.8306 18.697 11.5613 18.0505C11.292 17.4039 11.1528 16.7106 11.1514 16.0101Z" fill="white"/>
</g>
<defs>
<clipPath id="clip0_916_43">
<rect width="32" height="32" fill="white" transform="translate(0.484863)"/>
</clipPath>
</defs>
</svg>
