<svg width="33" height="32" viewBox="0 0 33 32" fill="none" xmlns="http://www.w3.org/2000/svg">
<g clip-path="url(#clip0_916_48)">
<path d="M28.0662 26.9533H23.3468V19.613C23.3468 17.8627 23.3154 15.6094 20.8923 15.6094C18.4342 15.6094 18.0582 17.5165 18.0582 19.4856V26.9528H13.3387V11.8582H17.8694V13.921H17.9328C18.3862 13.1511 19.0414 12.5177 19.8286 12.0883C20.6158 11.659 21.5055 11.4497 22.403 11.4828C27.1863 11.4828 28.0682 14.6075 28.0682 18.6726L28.0662 26.9533ZM8.0137 9.79489C7.47203 9.79498 6.94249 9.63556 6.49205 9.33676C6.04162 9.03796 5.69054 8.61321 5.48316 8.11623C5.27578 7.61925 5.22144 7.07235 5.32702 6.5447C5.43259 6.01706 5.69335 5.53235 6.0763 5.15188C6.45925 4.77141 6.9472 4.51227 7.47844 4.40722C8.00968 4.30217 8.56035 4.35594 9.06082 4.56172C9.5613 4.76751 9.98909 5.11606 10.2901 5.56331C10.5911 6.01056 10.7518 6.53642 10.7519 7.07439C10.752 7.43158 10.6812 7.7853 10.5436 8.11533C10.4061 8.44536 10.2044 8.74525 9.95014 8.99787C9.69588 9.25049 9.39397 9.4509 9.06172 9.58765C8.72947 9.7244 8.37336 9.79482 8.0137 9.79489ZM10.3734 26.9533H5.64909V11.8582H10.3734V26.9533ZM30.419 0.00215519H3.27761C2.66157 -0.00474925 2.06795 0.23153 1.62724 0.659073C1.18652 1.08662 0.934764 1.67044 0.927246 2.28226V29.3501C0.934507 29.9622 1.18611 30.5464 1.62682 30.9744C2.06752 31.4024 2.66127 31.6391 3.27761 31.6326H30.419C31.0366 31.6403 31.632 31.4043 32.0744 30.9763C32.5169 30.5483 32.7702 29.9634 32.7787 29.3501V2.28031C32.7699 1.66727 32.5164 1.08278 32.074 0.655253C31.6315 0.227721 31.0363 -0.00788373 30.419 0.000201424" fill="white"/>
</g>
<defs>
<clipPath id="clip0_916_48">
<rect width="31.9998" height="32" fill="white" transform="translate(0.897949)"/>
</clipPath>
</defs>
</svg>
